<?xml version="1.0" encoding="UTF-8"?>
<svg width="318px" height="268px" viewBox="0 0 318 268" version="1.1" xmlns="http://www.w3.org/2000/svg" xmlns:xlink="http://www.w3.org/1999/xlink">
    <!-- Generator: Sketch 48.2 (47327) - http://www.bohemiancoding.com/sketch -->
    <title>缺省页/借款</title>
    <desc>Created with Sketch.</desc>
    <defs>
        <linearGradient x1="0%" y1="50%" x2="100%" y2="50%" id="linearGradient-1">
            <stop stop-color="#8DC0FF" offset="0%"></stop>
            <stop stop-color="#9AD9F6" offset="100%"></stop>
        </linearGradient>
        <polygon id="path-2" points="1046.00215 556.550776 1113.14229 468.760328 1180.45738 566.507752 1106.47313 649.383008"></polygon>
        <polygon id="path-3" points="1112.25328 469.58861 1215.64336 459.64538 1269.03264 537.7401 1180.10512 566.94345"></polygon>
        <linearGradient x1="0%" y1="50%" x2="100%" y2="50%" id="linearGradient-4">
            <stop stop-color="#9AD9F6" offset="0%"></stop>
            <stop stop-color="#8EC1FF" offset="100%"></stop>
            <stop stop-color="#8EC1FF" offset="200%"></stop>
        </linearGradient>
        <polygon id="path-5" points="1179.07143 515.481236 1266.73069 493.709178 1268.77852 538.07869 1180.1931 564.746958"></polygon>
        <linearGradient x1="0%" y1="50%" x2="100%" y2="50%" id="linearGradient-6">
            <stop stop-color="#A9CBFF" offset="0%"></stop>
            <stop stop-color="#B2EAFF" offset="100%"></stop>
        </linearGradient>
        <polygon id="path-7" points="1057.32668 626.81749 1126.95094 542.70973 1178.14533 567.32663 1106.47321 649.383"></polygon>
        <polygon id="path-8" points="1181.11916 564.714996 1269.07892 538.56693 1198.62308 618.611802 1104.42548 649.38291"></polygon>
        <linearGradient x1="6.13%" y1="100%" x2="93.87%" y2="0%" id="linearGradient-10">
            <stop stop-color="#F5D07E" offset="0%"></stop>
            <stop stop-color="#F5D07E" offset="100%"></stop>
            <stop stop-color="#FFE59B" offset="200%"></stop>
        </linearGradient>
        <path d="M1175.89847,631.515535 C1183.49644,629.365075 1193.69624,629.887885 1200.98227,636.791155 C1209.8325,645.176995 1209.19725,651.26725 1215.47455,657.53557 C1219.37345,661.4314 1223.46032,661.503355 1228.00704,661.568425 C1224.28968,665.345725 1206.1381,671.397055 1192.65217,662.0326 C1179.16389,652.66819 1172.99007,636.086095 1175.89847,631.515535 Z" id="path-11"></path>
        <linearGradient x1="15.2214%" y1="100%" x2="84.7786%" y2="0%" id="linearGradient-12">
            <stop stop-color="#F5D07E" offset="0%"></stop>
            <stop stop-color="#F5D07E" offset="100%"></stop>
            <stop stop-color="#FFE59B" offset="200%"></stop>
        </linearGradient>
        <path d="M1145.29048,687.849246 C1149.58029,684.912832 1156.0545,683.098578 1162.04965,685.877198 C1169.33178,689.252544 1170.21345,693.186058 1175.44586,695.780078 C1178.69628,697.392858 1181.26149,696.58015 1184.11226,695.666536 C1182.58533,698.803592 1172.52887,706.388754 1162.14876,703.375614 C1151.76706,700.362864 1144.43491,691.31151 1145.29048,687.849246 Z" id="path-13"></path>
    </defs>
    <g id="当前账单已还清" stroke="none" stroke-width="1" fill="none" fill-rule="evenodd" transform="translate(-220.000000, -523.000000)">
        <g id="组-69">
            <g id="缺省页/借款" transform="translate(212.000000, 477.000000)">
                <g id="组-27" transform="translate(-1004.000000, -413.000000)">
                    <path d="M1171.00012,681.99992 C1258.8132,681.99992 1330.00009,692.073536 1330.00009,704.499968 C1330.00009,716.9264 1258.8132,726.99992 1171.00012,726.99992 C1083.18672,726.99992 1011.99983,716.9264 1011.99983,704.499968 C1011.99983,692.073536 1083.18672,681.99992 1171.00012,681.99992 Z" id="椭圆-11-拷贝" fill="#D1DFE8" opacity="0.5"></path>
                    <path d="M1159.04081,713.000112 C1168.42913,713.089332 1176.02172,714.952416 1175.99911,717.161364 C1175.9765,719.370504 1168.34743,721.088928 1158.95907,720.999708 C1149.57068,720.910488 1141.9782,719.047404 1142.0007,716.838444 C1142.02331,714.629304 1149.65238,712.91088 1159.04081,713.000112 Z" id="椭圆-12-拷贝" fill="#C7DCF6" opacity="0.3" style="mix-blend-mode: multiply;"></path>
                    <path d="M1218.02147,697.99996 C1222.99184,698.044576 1227.01142,698.97616 1226.99945,700.080688 C1226.98759,701.185208 1222.94859,702.044376 1217.97833,701.99976 C1213.00794,701.955152 1208.98838,701.023656 1209.00035,699.919136 C1209.01232,698.814704 1213.05121,697.955352 1218.02147,697.99996 Z" id="椭圆-12-拷贝-2" fill="#C7DCF6" opacity="0.3" style="mix-blend-mode: multiply;"></path>
                    <path d="M1261.02158,693.000008 C1265.99184,693.044616 1270.0114,693.976208 1269.99945,695.08064 C1269.98757,696.18516 1265.94857,697.044416 1260.97831,696.999808 C1256.00805,696.9552 1251.98847,696.023696 1252.00035,694.919176 C1252.01232,693.81456 1256.05121,692.9554 1261.02158,693.000008 Z" id="椭圆-12-拷贝-3" fill="#C7DCF6" opacity="0.3" style="mix-blend-mode: multiply;"></path>
                    <g id="矩形-20">
                        <use fill="#97D3F8" xlink:href="#path-2"></use>
                        <use fill="url(#linearGradient-1)" xlink:href="#path-2"></use>
                    </g>
                    <g id="矩形-21">
                        <use fill="#8DC1FF" xlink:href="#path-3"></use>
                        <use fill="url(#linearGradient-1)" xlink:href="#path-3"></use>
                    </g>
                    <g id="矩形-21-拷贝">
                        <use fill="#97D3F8" xlink:href="#path-5"></use>
                        <use fill="url(#linearGradient-4)" xlink:href="#path-5"></use>
                    </g>
                    <polygon id="矩形-21-拷贝-4" fill="#97D3F8" points="1105.35161 648.82286 1199.15417 618.61182 1199.15417 645.280162 1104.42541 673.999964"></polygon>
                    <polygon id="矩形-21-拷贝-5" fill="#8DC1FF" points="1196.3223 620.39389 1268.24722 538.606807 1290.99993 530.827915 1220.31331 615.332272"></polygon>
                    <g id="矩形-21-拷贝-3">
                        <use fill="#8DC1FF" xlink:href="#path-7"></use>
                        <use fill="url(#linearGradient-6)" xlink:href="#path-7"></use>
                    </g>
                    <g id="矩形-21-拷贝-2">
                        <mask id="mask-9" fill="white">
                            <use xlink:href="#path-8"></use>
                        </mask>
                        <use fill="#6EA0DC" xlink:href="#path-8"></use>
                        <polygon id="矩形-20-拷贝" fill="#568FD3" mask="url(#mask-9)" points="1138.1519 525.779488 1205.29203 437.989224 1272.60726 535.736648 1198.62301 618.611904"></polygon>
                    </g>
                    <g id="形状-5">
                        <use fill="#F3E0A1" xlink:href="#path-11"></use>
                        <use fill="url(#linearGradient-10)" xlink:href="#path-11"></use>
                    </g>
                    <path d="M1203.31749,651.908498 C1200.91274,649.386176 1197.99385,644.755484 1191.96178,639.268508 C1186.7271,634.572839 1178.23251,628.974389 1166.109,627.987458 L1164.98918,629.937758 C1177.03378,630.629669 1185.53645,636.022859 1190.84355,640.562306 C1196.82303,645.741161 1199.91173,650.159432 1202.59581,652.618691 C1207.93712,657.449396 1208.34024,656.904962 1208.2634,657.005678 C1208.35218,656.919482 1208.20277,657.003632 1203.31749,651.908498 Z" id="形状-6" fill="#E4C971"></path>
                    <g id="形状-5">
                        <use fill="#F3E0A1" xlink:href="#path-13"></use>
                        <use fill="url(#linearGradient-12)" xlink:href="#path-13"></use>
                    </g>
                    <path d="M1166.67919,694.82013 C1164.64934,693.750855 1161.85613,691.473885 1156.94087,689.31597 C1152.68903,687.48456 1146.21368,685.77375 1138.44172,687.702195 L1138.15227,689.154135 C1145.81303,687.058275 1152.25044,688.639095 1156.51456,690.35799 C1161.33253,692.334705 1164.18691,694.44342 1166.37788,695.41476 C1170.72453,697.308045 1170.8618,696.883785 1170.83499,696.96273 C1170.87234,696.890295 1170.79667,696.97419 1166.67919,694.82013 Z" id="形状-6" fill="#E4C971"></path>
                    <path d="M1244.09939,630.339046 C1245.9514,627.695286 1249.31811,625.226554 1253.40958,625.532048 C1258.37955,625.90316 1259.75112,627.996916 1263.35903,628.361686 C1265.60051,628.589144 1266.91401,627.556308 1268.37141,626.40268 C1268.16921,628.55959 1263.981,635.164874 1257.28943,635.681026 C1250.59723,636.197626 1244.35837,632.538278 1244.09939,630.339046 Z" id="形状-5" fill="#F3E0A1"></path>
                    <path d="M1258.05387,629.71873 C1256.64054,629.540559 1254.51964,628.827252 1251.19129,628.646701 C1248.32004,628.510845 1244.18266,628.931069 1240.08647,631.749605 L1240.2354,632.656686 C1244.23032,629.765084 1248.31728,629.277856 1251.17114,629.345413 C1254.40335,629.441978 1256.52303,630.044125 1258.00856,630.130043 C1260.94865,630.281131 1260.93577,630.004568 1260.9374,630.056242 C1260.94322,630.006031 1260.91767,630.071299 1258.05387,629.71873 Z" id="形状-6" fill="#E4C971"></path>
                    <path d="M1276.74819,693.80152 C1273.37975,696.997412 1268.13609,697.772312 1262.98366,694.056712 C1258.91467,691.120772 1257.3556,685.092652 1257.56405,682.038496 C1259.41515,684.42516 1262.03826,687.057356 1264.41251,688.592484 C1266.12256,689.689748 1267.69616,690.321988 1268.56761,690.644268 C1268.57805,690.644016 1268.58817,690.6441 1268.59951,690.644268 C1266.6936,689.539584 1261.75403,685.172704 1258.21078,680.501716 C1258.17192,680.45336 1258.13109,680.401756 1258.0913,680.343572 C1256.66572,678.311136 1255.19591,676.170928 1254.44046,673.60022 L1255.92448,672.479828 C1256.8222,675.87326 1258.30772,678.280644 1259.3635,679.814204 C1262.65543,679.04426 1270.83683,679.35478 1275.18123,682.490108 C1280.33325,686.205904 1280.11631,690.608288 1276.74819,693.80152 Z" id="形状-7" fill="#F3E0A1"></path>
                </g>
            </g>
        </g>
    </g>
</svg>