<?xml version="1.0" encoding="UTF-8"?>
<svg width="32px" height="32px" viewBox="0 0 32 32" version="1.1" xmlns="http://www.w3.org/2000/svg" xmlns:xlink="http://www.w3.org/1999/xlink">
    <!-- Generator: Sketch 48.2 (47327) - http://www.bohemiancoding.com/sketch -->
    <title>Group</title>
    <desc>Created with Sketch.</desc>
    <defs></defs>
    <g id="首页-新用户-copy-2" stroke="none" stroke-width="1" fill="none" fill-rule="evenodd" transform="translate(-638.000000, -830.000000)">
        <g id="btn/弹窗" transform="translate(638.000000, 830.000000)">
            <g id="Group">
                <rect id="Rectangle" fill="#368EFF" x="0" y="0" width="32" height="32" rx="16"></rect>
                <path d="M15.7139588,7 C17.3249428,7 18.6086957,7.44368132 19.590389,8.38324176 C20.5217391,9.2706044 21,10.4972527 21,12.0631868 C21,13.2376374 20.6727689,14.2554945 20.0434783,15.1167582 C19.791762,15.4299451 19.1121281,16.1085165 18.0045767,17.1263736 C17.4508009,17.6222527 17.0732265,18.092033 16.8215103,18.5618132 C16.4942792,19.135989 16.3432494,19.7623626 16.3432494,20.467033 L16.3432494,21.0673077 L14.3295195,21.0673077 L14.3295195,20.467033 C14.3295195,19.6057692 14.4805492,18.8489011 14.7826087,18.1964286 C15.1350114,17.4134615 15.9656751,16.4217033 17.3249428,15.168956 C17.7276888,14.7513736 18.0297483,14.4381868 18.180778,14.2293956 C18.6842105,13.5769231 18.9359268,12.8983516 18.9359268,12.1675824 C18.9359268,11.1236264 18.6338673,10.3145604 18.0800915,9.74038462 C17.5011442,9.11401099 16.6704805,8.82692308 15.6132723,8.82692308 C14.3546911,8.82692308 13.423341,9.24450549 12.819222,10.1057692 C12.2654462,10.8365385 11.9885584,11.8282967 11.9885584,13.1071429 L10,13.1071429 C10,11.2802198 10.4782609,9.81868132 11.4851259,8.72252747 C12.4919908,7.57417582 13.9016018,7 15.7139588,7 Z M15.3363844,22.8942308 C15.7643021,22.8942308 16.1418764,23.0247253 16.4439359,23.3379121 C16.7208238,23.625 16.8718535,23.9903846 16.8718535,24.4340659 C16.8718535,24.9038462 16.7208238,25.2692308 16.4187643,25.5563187 C16.1167048,25.8434066 15.7643021,26 15.3363844,26 C14.9084668,26 14.5560641,25.8434066 14.2540046,25.5563187 C13.9519451,25.2431319 13.826087,24.8777473 13.826087,24.4340659 C13.826087,23.9903846 13.9519451,23.625 14.2540046,23.3379121 C14.5560641,23.0247253 14.9084668,22.8942308 15.3363844,22.8942308 Z" id="？" fill="#FFFFFF"></path>
            </g>
        </g>
    </g>
</svg>