<?xml version="1.0" encoding="UTF-8"?>
<svg width="209px" height="18px" viewBox="0 0 209 18" version="1.1" xmlns="http://www.w3.org/2000/svg" xmlns:xlink="http://www.w3.org/1999/xlink">
    <!-- Generator: Sketch 48.2 (47327) - http://www.bohemiancoding.com/sketch -->
    <title>Group 2</title>
    <desc>Created with Sketch.</desc>
    <defs></defs>
    <g id="首页-新用户-copy-2" stroke="none" stroke-width="1" fill="none" fill-rule="evenodd" transform="translate(-270.000000, -652.000000)">
        <g id="Group-2" transform="translate(270.000000, 652.000000)" fill="#DADADA">
            <path d="M209,8.99991764 C204.470495,9.90165769 200.901717,13.4702335 199.999614,18 C199.097594,13.4702335 195.529144,9.90165769 191,8.99991764 C195.529144,8.09827975 199.097594,4.53005287 199.999614,1.85407245e-13 C200.901717,4.53005287 204.470495,8.09827975 209,8.99991764 Z" id="Combined-shape-1499"></path>
            <path d="M18,8.99991773 C13.4701045,9.90158435 9.90141888,13.4702954 9.00015794,18 C8.09889887,13.4702954 4.53019902,9.90158435 -2.04295469e-11,8.99991773 C4.53019902,8.09835326 8.09889887,4.52999112 9.00015794,3.66373598e-15 C9.90141888,4.52999112 13.4701045,8.09835326 18,8.99991773 Z" id="Combined-shape-1498"></path>
        </g>
    </g>
</svg>